<?xml version="1.0" encoding="UTF-8" standalone="no"?>
<!DOCTYPE svg PUBLIC "-//W3C//DTD SVG 1.1//EN" "http://www.w3.org/Graphics/SVG/1.1/DTD/svg11.dtd">
<svg xmlns:xl="http://www.w3.org/1999/xlink" xmlns="http://www.w3.org/2000/svg" xmlns:dc="http://purl.org/dc/elements/1.1/" version="1.1" viewBox="0 0 2241 2085" width="2241" height="2085">
  <defs/>
  <metadata> Produced by OmniGraffle 7.18.5\n2021-07-07 21:03:37 +0000</metadata>
  <g id="Canvas_1" fill="none" stroke="none" fill-opacity="1" stroke-opacity="1" stroke-dasharray="none">
    <title>Canvas 1</title>
    <g id="Canvas_1_Layer_1">
      <title>Layer 1</title>
      <g id="Group_2">
        <title>Canvas_1</title>
        <g id="Group_3">
          <title>Canvas_1_Layer_1</title>
          <g id="Group_4">
            <title>Group_2</title>
            <g id="Group_45">
              <title>Graphic_23</title>
              <g id="Graphic_46">
                <path d="M 655.4 1 C 574.8 8.8 510.5 68.6 496.9 148.7 C 495.1 159.9 494.8 164 495.3 181.5 C 496 209.7 500.3 227.9 511.6 252 C 535.7 302.9 582 338.8 638.2 350.2 C 647.9 352.2 652.5 352.5 671 352.5 C 689.5 352.5 694.1 352.2 703.8 350.2 C 716.6 347.6 732.2 342.7 742.3 338.2 L 749 335.1 L 751.9 340.8 C 753.5 343.9 803.5 448.4 863 573 C 922.5 697.6 972.7 802.5 974.6 806.1 C 978.1 813.2 981.4 815.5 985.7 813.9 C 988.7 812.8 991.3 808.5 990.7 805.8 C 990.3 804.5 939.2 697.1 877 567 C 814.9 436.9 763.8 329.8 763.5 328.9 C 763.1 327.8 765.5 325.7 771.2 321.7 C 801.7 300.9 826.3 268.3 838 233.1 C 844.5 213.7 846.1 204.1 846.7 181.5 C 847.2 164 846.9 159.9 845.1 148.8 C 838.5 110.4 822 78.6 794.6 51.5 C 762.3 19.7 722.5 2.5 677 .7 C 670.1 .4 660.4 .5 655.4 1 Z M 703.3 19 C 724.2 23.4 744.4 32 762.2 44.1 C 774.9 52.7 795.7 73.6 803.9 86 C 816.6 105.1 825.6 127 829.6 148.5 C 832.4 163.6 832.2 193.7 829.1 208 C 818.3 258.8 786.7 299.4 741 321.7 C 703.4 340 661.1 342.9 621 329.9 C 583.9 317.8 551.3 291.4 531.6 257.4 C 522.4 241.5 515.8 223.5 512.2 204.5 C 509.6 190.4 509.9 159.7 512.9 146 C 520 112.6 533.8 87.1 557.4 63.4 C 583.5 37.3 614.1 22 650 17 C 661.2 15.5 692.1 16.6 703.3 19 Z" fill="#6d7277"/>
              </g>
            </g>
            <g id="Group_43">
              <title>Graphic_22</title>
              <g id="Graphic_44">
                <path d="M 1551.5 115.1 C 1542.1 116.7 1528.5 121.1 1519.2 125.7 C 1460.5 154.4 1436.7 225.9 1466.6 284 C 1477.5 305.1 1494.7 322.6 1515.6 333.7 C 1520.2 336.2 1524 338.5 1524 339 C 1524 339.4 1490 436.2 1448.4 554.1 C 1378 753.8 1372.9 768.7 1374.2 771 C 1376.4 775 1380.1 776.6 1383.8 775.1 C 1386.2 774.1 1387.4 772.6 1388.9 768.6 C 1390 765.7 1424 669.4 1464.5 554.4 C 1505 439.5 1538.5 345.1 1538.9 344.7 C 1539.4 344.2 1543.7 344.7 1548.6 345.6 C 1566.8 349.2 1590 347.6 1608 341.5 C 1659 324.2 1692.8 271.9 1687 219.4 C 1684 191.5 1672.6 167.6 1653 148 C 1636.2 131.1 1614.1 119.5 1591.2 115.5 C 1582.1 113.9 1559.9 113.7 1551.5 115.1 Z M 1596 132.3 C 1631.9 141.6 1659 168.8 1669.2 205.8 C 1671 212.2 1671.4 216.3 1671.4 230.5 C 1671.4 250.4 1669.8 258.2 1662.4 273.9 C 1652.1 295.8 1635.8 312.1 1613.9 322.4 C 1600.2 328.9 1591 331.1 1575.2 331.7 C 1555.9 332.5 1540.7 329.4 1525 321.5 C 1504.3 311.1 1485.7 291.4 1477.1 270.5 C 1470.9 255.7 1469.7 249.2 1469.6 231 C 1469.5 212.9 1470.9 205.3 1477.1 190.4 C 1487.8 164.6 1514 141.1 1540.4 133.5 C 1558.4 128.3 1578.9 127.8 1596 132.3 Z" fill="#6d7277"/>
              </g>
            </g>
            <g id="Group_41">
              <title>Graphic_21</title>
              <g id="Graphic_42">
                <path d="M 1196.5 735.7 C 1145.7 739 1092.9 750.4 1047.5 768 C 1041.5 770.3 1035.4 773.2 1034.2 774.4 C 1026.5 781.3 1027.4 792.8 1036.1 799.2 C 1041 802.9 1045.4 802.6 1058 797.7 C 1107.5 778.5 1158.9 768.3 1215.3 766.4 C 1234.2 765.8 1236.5 765.5 1239.3 763.6 C 1249 757 1248.6 743 1238.4 737.3 C 1234.8 735.2 1233.4 735 1218 735.2 C 1208.9 735.3 1199.3 735.5 1196.5 735.7 Z" fill="#e01f20"/>
              </g>
            </g>
            <g id="Group_39">
              <title>Graphic_20</title>
              <g id="Graphic_40">
                <path d="M 1287.3 741.9 C 1277.3 746.5 1275.6 759.8 1284 767.4 C 1287.6 770.7 1288.6 771 1293.8 771 C 1301.3 771 1306.1 767.9 1308.5 761.5 C 1311.7 753.3 1309 746.3 1301 742.2 C 1295.6 739.5 1292.8 739.5 1287.3 741.9 Z" fill="#e01f20"/>
              </g>
            </g>
            <g id="Group_37">
              <title>Graphic_19</title>
              <g id="Graphic_38">
                <path d="M 1409 777.8 C 1403.8 780.4 1401 785.2 1401 791.5 C 1401 800.6 1402.6 802 1426.6 814 C 1451.7 826.6 1457.6 830 1478.5 844.1 C 1504.4 861.6 1531.3 884.1 1550.9 904.5 C 1561.7 915.9 1563.7 917.2 1569.8 917.3 C 1581.8 917.5 1589.5 905.8 1584.2 895.4 C 1581.9 890.9 1551 860.2 1537 848.5 C 1506.2 822.9 1476.6 803.7 1438.7 784.9 C 1419.3 775.2 1415.7 774.4 1409 777.8 Z" fill="#e01f20"/>
              </g>
            </g>
            <g id="Group_35">
              <title>Graphic_18</title>
              <g id="Graphic_36">
                <path d="M 929.8 835.2 C 919.8 837.8 915.7 851.8 922.5 859.9 C 932 871.1 950 864.6 950 849.9 C 950 839.3 940.4 832.4 929.8 835.2 Z" fill="#e01f20"/>
              </g>
            </g>
            <g id="Group_33">
              <title>Graphic_17</title>
              <g id="Graphic_34">
                <path d="M 880.4 878.4 C 872.2 882 836.8 924.8 816.7 955.5 C 794.2 989.9 769 1040.9 769 1052.2 C 769 1065.9 786.2 1072.6 795.5 1062.5 C 797.2 1060.7 800.2 1054.9 802.4 1049.4 C 808.2 1034.5 823.8 1003.2 833.2 987.7 C 849.7 960.5 869.3 934.5 889.8 912.7 C 901.6 900.3 903.8 896.3 902.6 889.8 C 900.7 879.5 890.2 874.1 880.4 878.4 Z" fill="#e01f20"/>
              </g>
            </g>
            <g id="Group_31">
              <title>Graphic_16</title>
              <g id="Graphic_32">
                <path d="M 1202.1899 898.1621 C 1106.3899 905.2621 1017.7899 955.5621 961.6899 1034.5621 C 942.0899 1062.1621 924.5899 1098.4621 915.2899 1131.0621 C 906.7899 1160.4621 902.8899 1188.5621 902.8899 1220.9621 C 902.8899 1244.3621 903.7899 1255.9621 907.2899 1276.4621 C 925.0899 1381.5621 995.2899 1472.2621 1092.9899 1516.4621 C 1159.8899 1546.6621 1234.9899 1553.2621 1306.6899 1534.9621 C 1330.3899 1528.9621 1346.3899 1522.9621 1369.6899 1511.4621 C 1413.1899 1489.9621 1448.0899 1462.1621 1478.2899 1424.9621 C 1515.8899 1378.6621 1539.1899 1324.3621 1547.8899 1262.4621 C 1550.3899 1244.3621 1550.3899 1198.0621 1547.8899 1179.9621 C 1542.3899 1141.5621 1532.5899 1109.4621 1515.9899 1076.2621 C 1460.7899 965.8621 1347.5899 896.4621 1224.6899 897.6621 C 1214.7899 897.7621 1204.6899 897.9621 1202.1899 898.1621 Z" fill="#e01f20"/>
              </g>
            </g>
            <g id="Group_29">
              <title>Graphic_15</title>
              <g id="Graphic_30">
                <path d="M 1603 937.7 C 1592.6 943.1 1592.1 958.8 1602.2 965 C 1606.4 967.5 1613.4 967.6 1618 965.1 C 1622.9 962.5 1626.3 955.8 1625.7 950.1 C 1624.5 939.4 1612.4 932.8 1603 937.7 Z" fill="#e01f20"/>
              </g>
            </g>
            <g id="Group_27">
              <title>Graphic_14</title>
              <g id="Graphic_28">
                <path d="M 1660.3 1051 C 1656.5 1053.3 1653 1059.6 1653 1064.3 C 1653 1066.1 1654.4 1071.6 1656 1076.6 C 1670.1 1117.9 1677.8 1160.8 1679.8 1210.2 C 1680.5 1225.8 1680.8 1228.3 1682.6 1230.7 C 1687.9 1237.8 1695.5 1239.8 1702.9 1235.8 C 1709.9 1232.1 1711 1228.9 1711 1213.5 C 1711 1189.5 1707.6 1156.6 1702.4 1129.5 C 1697.1 1102.2 1685.3 1061 1681 1055 C 1676.8 1049.2 1666.5 1047.2 1660.3 1051 Z" fill="#e01f20"/>
              </g>
            </g>
            <g id="Group_25">
              <title>Graphic_13</title>
              <g id="Graphic_26">
                <path d="M 747 1162.2 C 741.7 1165.8 739.8 1169.2 739.7 1174.7 C 739.6 1180.4 741.9 1185.1 746.3 1188.4 C 748.4 1190 750.6 1190.5 755 1190.5 C 761.6 1190.5 765.2 1188.5 768.4 1183 C 771.1 1178.4 771.1 1171 768.4 1167.3 C 764.9 1162.5 760.2 1160 755 1160 C 751.8 1160 749.3 1160.7 747 1162.2 Z" fill="#e01f20"/>
              </g>
            </g>
            <g id="Group_23">
              <title>Graphic_12</title>
              <g id="Graphic_24">
                <path d="M 2049.5 1185.1 C 2022.3 1187.2 1994.2 1196.5 1970.5 1211.3 C 1933.9 1234 1905 1272.4 1893.9 1312.8 C 1892.7 1317.3 1891.2 1321 1890.6 1321 C 1890 1321 1846.8 1313.1 1794.6 1303.4 C 1721.3 1289.9 1699 1286.1 1697.3 1286.9 C 1692.1 1289.3 1690.9 1295.8 1694.9 1299.4 C 1696 1300.4 1728.1 1306.7 1792.5 1318.6 C 1845.3 1328.3 1888.6 1336.3 1888.6 1336.4 C 1888.7 1336.5 1888.3 1341.9 1887.7 1348.5 C 1886.5 1362.6 1887.9 1383.2 1891 1397.5 C 1907.1 1470.1 1965.1 1524.4 2038.6 1535.5 C 2051.5 1537.4 2075.4 1537.4 2088.7 1535.4 C 2139.3 1527.9 2183.5 1499.6 2211.4 1456.8 C 2223.8 1437.8 2233.5 1413.3 2237.6 1390.5 C 2240.2 1376.5 2240.2 1345.5 2237.6 1331.5 C 2230.5 1292.8 2213.6 1261.2 2185.1 1233.7 C 2155.1 1204.8 2118 1188.3 2075.7 1185 C 2069 1184.5 2062.6 1184.1 2061.5 1184.2 C 2060.4 1184.2 2055 1184.6 2049.5 1185.1 Z M 2095.5 1203 C 2154.4 1215.5 2201.1 1258.1 2217.9 1314.8 C 2226.9 1345.2 2226.6 1380.6 2217 1410 C 2186.3 1504.2 2079.8 1549 1991.5 1504.8 C 1945.7 1481.8 1913.6 1438.5 1905 1388.3 C 1902.2 1372.4 1902.3 1349.4 1905 1333.5 C 1914.4 1279.4 1950.6 1233.8 2001.1 1212.5 C 2012.6 1207.7 2030.5 1202.7 2042.1 1201.1 C 2054.2 1199.5 2083.8 1200.5 2095.5 1203 Z" fill="#6d7277"/>
              </g>
            </g>
            <g id="Group_21">
              <title>Graphic_11</title>
              <g id="Graphic_22">
                <path d="M 746 1225.2 C 738.9 1228.9 737.5 1232.3 737.7 1245.5 C 738.8 1295.1 752.2 1354.9 774.5 1409.6 C 782.8 1430.1 785.4 1434.5 790.4 1437 C 798.1 1440.7 806.2 1438.7 810.8 1432 C 814.6 1426.3 813.9 1421.1 807.1 1405.8 C 785 1355.9 772.7 1304.5 769.1 1247.8 C 768.1 1231.9 766.5 1228.1 759.6 1224.9 C 754.2 1222.5 751.3 1222.5 746 1225.2 Z" fill="#e01f20"/>
              </g>
            </g>
            <g id="Group_19">
              <title>Graphic_10</title>
              <g id="Graphic_20">
                <path d="M 1673.7 1333.4 C 1667.5 1335.7 1665.3 1338.5 1662.5 1347.9 C 1646 1403.6 1622.2 1451.1 1587.8 1496.7 C 1582.3 1504 1577.4 1511.5 1576.9 1513.5 C 1573.3 1526.4 1589.8 1537.5 1601 1529.7 C 1607.3 1525.3 1635.7 1484.4 1649.1 1460.5 C 1663.9 1434 1676.7 1405 1686.7 1375 C 1694.4 1352 1695.3 1346.1 1692 1340.2 C 1688.4 1333.9 1680.5 1331 1673.7 1333.4 Z" fill="#e01f20"/>
              </g>
            </g>
            <g id="Group_17">
              <title>Graphic_9</title>
              <g id="Graphic_18">
                <path d="M 630 1588.1 C 529.1 1649.6 446.3 1700 446 1700 C 445.7 1699.9 443.9 1697.6 442 1694.8 C 430.2 1677.2 407.3 1653.4 389.5 1640 C 354.6 1613.8 314.5 1597.6 270.5 1591.9 C 256.9 1590.2 226.6 1590.5 212.5 1592.4 C 169.1 1598.5 131.8 1613.7 97.9 1639.2 C 53.9 1672.2 22 1719.8 8.5 1772.5 C 2.7 1794.9 1.5 1805.5 1.5 1833 C 1.5 1859.6 2.5 1868.3 8 1890.8 C 18.5 1933.5 41.3 1973.5 73.2 2005.1 C 103.8 2035.3 143.9 2057.8 185 2067.9 C 206.8 2073.2 218.1 2074.5 243 2074.5 C 268.3 2074.4 280.5 2073 302.5 2067.5 C 381.8 2047.5 446.9 1986.9 472.8 1908.9 C 482.3 1880.2 485.6 1857.5 484.7 1825.6 C 483.8 1789 476.3 1758.7 460.3 1726.1 C 457 1719.2 454.5 1713.2 454.8 1712.8 C 455.2 1712.5 537 1662.6 636.5 1602 C 736.1 1541.5 818.6 1491.1 820 1490.1 C 824.1 1487.2 825.4 1483.6 823.6 1480.2 C 821.9 1476.9 820.2 1476 816.2 1476.1 C 814.5 1476.1 746.3 1517.2 630 1588.1 Z M 266.8 1607.1 C 328 1613.7 385.5 1645.7 422.3 1693.7 C 441.6 1719 455 1746.2 462.5 1775.4 C 468.1 1797.1 469.5 1808.7 469.4 1833 C 469.4 1870.9 463 1898.9 446.5 1932.5 C 412.7 2001.7 348.6 2047.3 270 2058.1 C 259 2059.6 227 2059.6 216 2058.1 C 179.6 2053.1 146.9 2041.1 118.5 2022.2 C 2 1944.8 -18.4 1784.5 74.9 1680.5 C 111.1 1640.1 164.6 1612.8 218.5 1607.1 C 230.2 1605.9 255.6 1605.8 266.8 1607.1 Z" fill="#6d7277"/>
              </g>
            </g>
            <g id="Group_15">
              <title>Graphic_8</title>
              <g id="Graphic_16">
                <path d="M 862.2 1514.7 C 861 1514.9 858.2 1516.8 856.1 1518.8 C 850.7 1523.9 849.7 1530 853.1 1536.7 C 858.8 1547.7 874 1548 880.4 1537.1 C 884.3 1530.4 882 1520.6 875.5 1516.8 C 872.2 1515 865.8 1513.9 862.2 1514.7 Z" fill="#e01f20"/>
              </g>
            </g>
            <g id="Group_13">
              <title>Graphic_7</title>
              <g id="Graphic_14">
                <path d="M 1542.3 1549.9 C 1532.5 1554.5 1530.6 1566.3 1538.4 1574.7 C 1541.1 1577.7 1542.5 1578.3 1546.8 1578.8 C 1553.1 1579.4 1557 1577.9 1560.9 1573.5 C 1564.9 1568.9 1565.7 1563.4 1563.2 1557.7 C 1559.5 1549.4 1550.5 1546 1542.3 1549.9 Z" fill="#e01f20"/>
              </g>
            </g>
            <g id="Group_11">
              <title>Graphic_6</title>
              <g id="Graphic_12">
                <path d="M 903 1562.2 C 896.7 1566.5 894.4 1574.3 897.4 1581.4 C 899.9 1587.4 930.2 1611.9 956.7 1629.3 C 989.2 1650.7 1023.3 1667.7 1061.8 1681.6 C 1072.1 1685.4 1078.4 1685.9 1083.6 1683.4 C 1090.8 1680 1093.7 1669.3 1089.4 1661.9 C 1087 1657.8 1082.9 1655.6 1064.8 1649 C 1018.8 1632.2 972.4 1605.5 935.7 1574.8 C 919.2 1561 917.5 1560 911.5 1560 C 907.7 1560 905.4 1560.6 903 1562.2 Z" fill="#e01f20"/>
              </g>
            </g>
            <g id="Group_9">
              <title>Graphic_5</title>
              <g id="Graphic_10">
                <path d="M 1425.5 1631 C 1378.2 1654.4 1325.8 1669.6 1272.2 1675.5 C 1257.4 1677.1 1254.3 1678.3 1251.1 1684 C 1246.9 1691.4 1249 1700 1256.3 1705.4 C 1260.1 1708.2 1268.6 1708 1292.5 1704.5 C 1344.6 1697 1389.8 1683.1 1437.5 1660.1 C 1456.3 1651 1460.2 1648.1 1461.5 1641.9 C 1463 1635.2 1459.5 1627.4 1453.7 1624.7 C 1447 1621.5 1442.9 1622.4 1425.5 1631 Z" fill="#e01f20"/>
              </g>
            </g>
            <g id="Group_7">
              <title>Graphic_4</title>
              <g id="Graphic_8">
                <path d="M 1194.4 1678.9 C 1188.3 1681.7 1185.5 1686.2 1185.5 1693.2 C 1185.5 1699.3 1187.2 1702.6 1192.3 1706.4 C 1198.6 1711.1 1210.9 1707.9 1214.4 1700.6 C 1220.8 1687.1 1207.6 1672.7 1194.4 1678.9 Z" fill="#e01f20"/>
              </g>
            </g>
            <g id="Group_5">
              <title>Graphic_3</title>
              <g id="Graphic_6">
                <path d="M 1124.3 1688 C 1123.1 1689 1121.7 1692.3 1121 1695.2 C 1120.4 1698.1 1112.9 1733.6 1104.4 1774 C 1095.9 1814.4 1088.7 1848.2 1088.5 1849 C 1088.1 1850.3 1085.6 1850.6 1072.8 1850.6 C 1056.2 1850.6 1049.4 1851.6 1035.5 1856.1 C 977.6 1874.6 943 1936.8 957.9 1995.2 C 968.9 2038.1 1001.3 2070.2 1044.7 2081.2 C 1052.2 2083.1 1056.1 2083.5 1071.5 2083.5 C 1086.9 2083.5 1090.8 2083.1 1098.3 2081.2 C 1141.7 2070.2 1174.1 2038.1 1185.1 1995.2 C 1198.3 1943.6 1172.7 1887.7 1124.4 1863 C 1120.1 1860.8 1113.5 1858 1109.8 1856.8 C 1104 1854.9 1103.1 1854.3 1103.5 1852.6 C 1105.8 1842.9 1137 1693.5 1137 1692.4 C 1137 1691.6 1135.9 1689.8 1134.5 1688.5 C 1131.6 1685.5 1127.2 1685.3 1124.3 1688 Z M 1097.5 1868.9 C 1107.2 1871.5 1122.2 1878.6 1130.6 1884.5 C 1180.1 1919.8 1187.5 1991.5 1146.3 2036 C 1131.7 2051.7 1114.3 2061.8 1093.5 2066.6 C 1082.4 2069.2 1060.6 2069.2 1049.5 2066.6 C 1002.5 2055.7 970 2015 970 1967 C 970 1918.7 1003.9 1877.4 1051.6 1867.5 C 1062 1865.4 1087.1 1866.1 1097.5 1868.9 Z" fill="#6d7277"/>
              </g>
            </g>
          </g>
        </g>
      </g>
    </g>
  </g>
</svg>
